<svg id="visual" viewBox="0 0 960 540" width="960" height="540" xmlns="http://www.w3.org/2000/svg" xmlns:xlink="http://www.w3.org/1999/xlink" version="1.1"><rect x="0" y="0" width="960" height="540" fill="#001220"></rect><defs><linearGradient id="grad1_0" x1="43.8%" y1="0%" x2="100%" y2="100%"><stop offset="14.444444444444446%" stop-color="#9d3b0a" stop-opacity="1"></stop><stop offset="85.55555555555554%" stop-color="#9d3b0a" stop-opacity="1"></stop></linearGradient></defs><defs><linearGradient id="grad1_1" x1="43.8%" y1="0%" x2="100%" y2="100%"><stop offset="14.444444444444446%" stop-color="#9d3b0a" stop-opacity="1"></stop><stop offset="85.55555555555554%" stop-color="#952429" stop-opacity="1"></stop></linearGradient></defs><defs><linearGradient id="grad1_2" x1="43.8%" y1="0%" x2="100%" y2="100%"><stop offset="14.444444444444446%" stop-color="#82183c" stop-opacity="1"></stop><stop offset="85.55555555555554%" stop-color="#952429" stop-opacity="1"></stop></linearGradient></defs><defs><linearGradient id="grad1_3" x1="43.8%" y1="0%" x2="100%" y2="100%"><stop offset="14.444444444444446%" stop-color="#82183c" stop-opacity="1"></stop><stop offset="85.55555555555554%" stop-color="#671a47" stop-opacity="1"></stop></linearGradient></defs><defs><linearGradient id="grad1_4" x1="43.8%" y1="0%" x2="100%" y2="100%"><stop offset="14.444444444444446%" stop-color="#481e49" stop-opacity="1"></stop><stop offset="85.55555555555554%" stop-color="#671a47" stop-opacity="1"></stop></linearGradient></defs><defs><linearGradient id="grad1_5" x1="43.8%" y1="0%" x2="100%" y2="100%"><stop offset="14.444444444444446%" stop-color="#481e49" stop-opacity="1"></stop><stop offset="85.55555555555554%" stop-color="#291e42" stop-opacity="1"></stop></linearGradient></defs><defs><linearGradient id="grad1_6" x1="43.8%" y1="0%" x2="100%" y2="100%"><stop offset="14.444444444444446%" stop-color="#0f1a33" stop-opacity="1"></stop><stop offset="85.55555555555554%" stop-color="#291e42" stop-opacity="1"></stop></linearGradient></defs><defs><linearGradient id="grad1_7" x1="43.8%" y1="0%" x2="100%" y2="100%"><stop offset="14.444444444444446%" stop-color="#0f1a33" stop-opacity="1"></stop><stop offset="85.55555555555554%" stop-color="#001220" stop-opacity="1"></stop></linearGradient></defs><defs><linearGradient id="grad2_0" x1="0%" y1="0%" x2="56.3%" y2="100%"><stop offset="14.444444444444446%" stop-color="#9d3b0a" stop-opacity="1"></stop><stop offset="85.55555555555554%" stop-color="#9d3b0a" stop-opacity="1"></stop></linearGradient></defs><defs><linearGradient id="grad2_1" x1="0%" y1="0%" x2="56.3%" y2="100%"><stop offset="14.444444444444446%" stop-color="#952429" stop-opacity="1"></stop><stop offset="85.55555555555554%" stop-color="#9d3b0a" stop-opacity="1"></stop></linearGradient></defs><defs><linearGradient id="grad2_2" x1="0%" y1="0%" x2="56.3%" y2="100%"><stop offset="14.444444444444446%" stop-color="#952429" stop-opacity="1"></stop><stop offset="85.55555555555554%" stop-color="#82183c" stop-opacity="1"></stop></linearGradient></defs><defs><linearGradient id="grad2_3" x1="0%" y1="0%" x2="56.3%" y2="100%"><stop offset="14.444444444444446%" stop-color="#671a47" stop-opacity="1"></stop><stop offset="85.55555555555554%" stop-color="#82183c" stop-opacity="1"></stop></linearGradient></defs><defs><linearGradient id="grad2_4" x1="0%" y1="0%" x2="56.3%" y2="100%"><stop offset="14.444444444444446%" stop-color="#671a47" stop-opacity="1"></stop><stop offset="85.55555555555554%" stop-color="#481e49" stop-opacity="1"></stop></linearGradient></defs><defs><linearGradient id="grad2_5" x1="0%" y1="0%" x2="56.3%" y2="100%"><stop offset="14.444444444444446%" stop-color="#291e42" stop-opacity="1"></stop><stop offset="85.55555555555554%" stop-color="#481e49" stop-opacity="1"></stop></linearGradient></defs><defs><linearGradient id="grad2_6" x1="0%" y1="0%" x2="56.3%" y2="100%"><stop offset="14.444444444444446%" stop-color="#291e42" stop-opacity="1"></stop><stop offset="85.55555555555554%" stop-color="#0f1a33" stop-opacity="1"></stop></linearGradient></defs><defs><linearGradient id="grad2_7" x1="0%" y1="0%" x2="56.3%" y2="100%"><stop offset="14.444444444444446%" stop-color="#001220" stop-opacity="1"></stop><stop offset="85.55555555555554%" stop-color="#0f1a33" stop-opacity="1"></stop></linearGradient></defs><g transform="translate(960, 0)"><path d="M0 486C-51.7 444.4 -103.5 402.8 -156.5 377.9C-209.6 352.9 -263.9 344.5 -316.8 316.8C-369.7 289.1 -421 242 -449 186C-477 130 -481.5 65 -486 0L0 0Z" fill="#06172a"></path><path d="M0 425.3C-45.3 388.9 -90.5 352.5 -137 330.6C-183.4 308.8 -230.9 301.4 -277.2 277.2C-323.4 252.9 -368.4 211.8 -392.9 162.7C-417.3 113.7 -421.3 56.9 -425.2 0L0 0Z" fill="#1b1d3b"></path><path d="M0 364.5C-38.8 333.3 -77.6 302.1 -117.4 283.4C-157.2 264.7 -197.9 258.4 -237.6 237.6C-277.2 216.8 -315.8 181.5 -336.8 139.5C-357.7 97.5 -361.1 48.7 -364.5 0L0 0Z" fill="#381f47"></path><path d="M0 303.8C-32.3 277.8 -64.7 251.8 -97.8 236.2C-131 220.6 -164.9 215.3 -198 198C-231 180.7 -263.2 151.3 -280.6 116.2C-298.1 81.2 -300.9 40.6 -303.7 0L0 0Z" fill="#581d49"></path><path d="M0 243C-25.9 222.2 -51.7 201.4 -78.3 188.9C-104.8 176.4 -132 172.3 -158.4 158.4C-184.8 144.5 -210.5 121 -224.5 93C-238.5 65 -240.7 32.5 -243 0L0 0Z" fill="#761843"></path><path d="M0 182.3C-19.4 166.7 -38.8 151.1 -58.7 141.7C-78.6 132.3 -99 129.2 -118.8 118.8C-138.6 108.4 -157.9 90.8 -168.4 69.7C-178.9 48.7 -180.6 24.4 -182.2 0L0 0Z" fill="#8d1c33"></path><path d="M0 121.5C-12.9 111.1 -25.9 100.7 -39.1 94.5C-52.4 88.2 -66 86.1 -79.2 79.2C-92.4 72.3 -105.3 60.5 -112.3 46.5C-119.2 32.5 -120.4 16.2 -121.5 0L0 0Z" fill="#9b2f1c"></path><path d="M0 60.8C-6.5 55.6 -12.9 50.4 -19.6 47.2C-26.2 44.1 -33 43.1 -39.6 39.6C-46.2 36.1 -52.6 30.3 -56.1 23.2C-59.6 16.2 -60.2 8.1 -60.7 0L0 0Z" fill="#9d3b0a"></path></g><g transform="translate(0, 540)"><path d="M0 -486C65.6 -480.6 131.1 -475.2 186 -449C240.8 -422.8 284.9 -375.8 330.2 -330.2C375.5 -284.6 421.9 -240.4 448.1 -185.6C474.2 -130.8 480.1 -65.4 486 0L0 0Z" fill="#06172a"></path><path d="M0 -425.2C57.4 -420.5 114.7 -415.8 162.7 -392.9C210.7 -370 249.3 -328.8 288.9 -288.9C328.6 -249 369.2 -210.4 392.1 -162.4C415 -114.4 420.1 -57.2 425.3 0L0 0Z" fill="#1b1d3b"></path><path d="M0 -364.5C49.2 -360.5 98.4 -356.4 139.5 -336.8C180.6 -317.1 213.7 -281.9 247.7 -247.7C281.6 -213.5 316.4 -180.3 336.1 -139.2C355.7 -98.1 360.1 -49 364.5 0L0 0Z" fill="#381f47"></path><path d="M0 -303.7C41 -300.4 82 -297 116.2 -280.6C150.5 -264.3 178.1 -234.9 206.4 -206.4C234.7 -177.9 263.7 -150.3 280.1 -116C296.4 -81.7 300.1 -40.9 303.8 0L0 0Z" fill="#581d49"></path><path d="M0 -243C32.8 -240.3 65.6 -237.6 93 -224.5C120.4 -211.4 142.5 -187.9 165.1 -165.1C187.7 -142.3 211 -120.2 224 -92.8C237.1 -65.4 240.1 -32.7 243 0L0 0Z" fill="#761843"></path><path d="M0 -182.2C24.6 -180.2 49.2 -178.2 69.7 -168.4C90.3 -158.6 106.9 -140.9 123.8 -123.8C140.8 -106.7 158.2 -90.2 168 -69.6C177.8 -49 180 -24.5 182.3 0L0 0Z" fill="#8d1c33"></path><path d="M0 -121.5C16.4 -120.2 32.8 -118.8 46.5 -112.3C60.2 -105.7 71.2 -94 82.6 -82.6C93.9 -71.2 105.5 -60.1 112 -46.4C118.6 -32.7 120 -16.3 121.5 0L0 0Z" fill="#9b2f1c"></path><path d="M0 -60.7C8.2 -60.1 16.4 -59.4 23.2 -56.1C30.1 -52.9 35.6 -47 41.3 -41.3C46.9 -35.6 52.7 -30.1 56 -23.2C59.3 -16.3 60 -8.2 60.8 0L0 0Z" fill="#9d3b0a"></path></g></svg>