<svg id="visual" viewBox="0 0 960 540" width="960" height="540" xmlns="http://www.w3.org/2000/svg" xmlns:xlink="http://www.w3.org/1999/xlink" version="1.1"><rect x="0" y="0" width="960" height="540" fill="#140021"></rect><path d="M0 153L74 153L74 98L148 98L148 195L222 195L222 139L295 139L295 211L369 211L369 112L443 112L443 123L517 123L517 206L591 206L591 121L665 121L665 146L738 146L738 107L812 107L812 126L886 126L886 206L960 206L960 226L960 541L960 541L886 541L886 541L812 541L812 541L738 541L738 541L665 541L665 541L591 541L591 541L517 541L517 541L443 541L443 541L369 541L369 541L295 541L295 541L222 541L222 541L148 541L148 541L74 541L74 541L0 541Z" fill="#0e8ae5"></path><path d="M0 201L74 201L74 229L148 229L148 115L222 115L222 157L295 157L295 209L369 209L369 251L443 251L443 119L517 119L517 199L591 199L591 160L665 160L665 179L738 179L738 128L812 128L812 236L886 236L886 134L960 134L960 169L960 541L960 541L886 541L886 541L812 541L812 541L738 541L738 541L665 541L665 541L591 541L591 541L517 541L517 541L443 541L443 541L369 541L369 541L295 541L295 541L222 541L222 541L148 541L148 541L74 541L74 541L0 541Z" fill="#0c7dd7"></path><path d="M0 190L74 190L74 153L148 153L148 198L222 198L222 158L295 158L295 246L369 246L369 202L443 202L443 184L517 184L517 187L591 187L591 275L665 275L665 237L738 237L738 181L812 181L812 247L886 247L886 249L960 249L960 195L960 541L960 541L886 541L886 541L812 541L812 541L738 541L738 541L665 541L665 541L591 541L591 541L517 541L517 541L443 541L443 541L369 541L369 541L295 541L295 541L222 541L222 541L148 541L148 541L74 541L74 541L0 541Z" fill="#0a71c8"></path><path d="M0 294L74 294L74 200L148 200L148 289L222 289L222 188L295 188L295 300L369 300L369 237L443 237L443 190L517 190L517 305L591 305L591 298L665 298L665 247L738 247L738 308L812 308L812 269L886 269L886 195L960 195L960 307L960 541L960 541L886 541L886 541L812 541L812 541L738 541L738 541L665 541L665 541L591 541L591 541L517 541L517 541L443 541L443 541L369 541L369 541L295 541L295 541L222 541L222 541L148 541L148 541L74 541L74 541L0 541Z" fill="#0765ba"></path><path d="M0 326L74 326L74 316L148 316L148 254L222 254L222 290L295 290L295 327L369 327L369 272L443 272L443 327L517 327L517 308L591 308L591 241L665 241L665 312L738 312L738 256L812 256L812 308L886 308L886 322L960 322L960 291L960 541L960 541L886 541L886 541L812 541L812 541L738 541L738 541L665 541L665 541L591 541L591 541L517 541L517 541L443 541L443 541L369 541L369 541L295 541L295 541L222 541L222 541L148 541L148 541L74 541L74 541L0 541Z" fill="#0459ac"></path><path d="M0 350L74 350L74 284L148 284L148 284L222 284L222 333L295 333L295 318L369 318L369 307L443 307L443 358L517 358L517 335L591 335L591 295L665 295L665 312L738 312L738 269L812 269L812 304L886 304L886 348L960 348L960 350L960 541L960 541L886 541L886 541L812 541L812 541L738 541L738 541L665 541L665 541L591 541L591 541L517 541L517 541L443 541L443 541L369 541L369 541L295 541L295 541L222 541L222 541L148 541L148 541L74 541L74 541L0 541Z" fill="#014d9e"></path><path d="M0 314L74 314L74 312L148 312L148 301L222 301L222 340L295 340L295 372L369 372L369 320L443 320L443 326L517 326L517 359L591 359L591 384L665 384L665 300L738 300L738 331L812 331L812 343L886 343L886 327L960 327L960 365L960 541L960 541L886 541L886 541L812 541L812 541L738 541L738 541L665 541L665 541L591 541L591 541L517 541L517 541L443 541L443 541L369 541L369 541L295 541L295 541L222 541L222 541L148 541L148 541L74 541L74 541L0 541Z" fill="#00418f"></path><path d="M0 347L74 347L74 379L148 379L148 344L222 344L222 402L295 402L295 381L369 381L369 382L443 382L443 395L517 395L517 362L591 362L591 404L665 404L665 378L738 378L738 349L812 349L812 350L886 350L886 359L960 359L960 408L960 541L960 541L886 541L886 541L812 541L812 541L738 541L738 541L665 541L665 541L591 541L591 541L517 541L517 541L443 541L443 541L369 541L369 541L295 541L295 541L222 541L222 541L148 541L148 541L74 541L74 541L0 541Z" fill="#003481"></path><path d="M0 416L74 416L74 394L148 394L148 390L222 390L222 423L295 423L295 384L369 384L369 386L443 386L443 410L517 410L517 371L591 371L591 438L665 438L665 407L738 407L738 401L812 401L812 415L886 415L886 425L960 425L960 386L960 541L960 541L886 541L886 541L812 541L812 541L738 541L738 541L665 541L665 541L591 541L591 541L517 541L517 541L443 541L443 541L369 541L369 541L295 541L295 541L222 541L222 541L148 541L148 541L74 541L74 541L0 541Z" fill="#002972"></path><path d="M0 435L74 435L74 430L148 430L148 463L222 463L222 433L295 433L295 409L369 409L369 440L443 440L443 426L517 426L517 441L591 441L591 458L665 458L665 433L738 433L738 421L812 421L812 445L886 445L886 440L960 440L960 451L960 541L960 541L886 541L886 541L812 541L812 541L738 541L738 541L665 541L665 541L591 541L591 541L517 541L517 541L443 541L443 541L369 541L369 541L295 541L295 541L222 541L222 541L148 541L148 541L74 541L74 541L0 541Z" fill="#001e64"></path><path d="M0 480L74 480L74 477L148 477L148 482L222 482L222 485L295 485L295 486L369 486L369 490L443 490L443 471L517 471L517 479L591 479L591 441L665 441L665 470L738 470L738 443L812 443L812 484L886 484L886 448L960 448L960 448L960 541L960 541L886 541L886 541L812 541L812 541L738 541L738 541L665 541L665 541L591 541L591 541L517 541L517 541L443 541L443 541L369 541L369 541L295 541L295 541L222 541L222 541L148 541L148 541L74 541L74 541L0 541Z" fill="#001255"></path><path d="M0 489L74 489L74 518L148 518L148 498L222 498L222 499L295 499L295 504L369 504L369 484L443 484L443 479L517 479L517 482L591 482L591 478L665 478L665 502L738 502L738 505L812 505L812 497L886 497L886 506L960 506L960 503L960 541L960 541L886 541L886 541L812 541L812 541L738 541L738 541L665 541L665 541L591 541L591 541L517 541L517 541L443 541L443 541L369 541L369 541L295 541L295 541L222 541L222 541L148 541L148 541L74 541L74 541L0 541Z" fill="#000000"></path></svg>