<svg id="visual" viewBox="0 0 960 540" width="960" height="540" xmlns="http://www.w3.org/2000/svg" xmlns:xlink="http://www.w3.org/1999/xlink" version="1.1"><g stroke-width="1" stroke-linejoin="bevel"><path d="M503.3 239L451.7 299L534.3 368Z" fill="#692421" stroke="#692421"></path><path d="M451.7 299L443.7 366L534.3 368Z" fill="#b65606" stroke="#b65606"></path><path d="M534.3 368L607 259L503.3 239Z" fill="#722821" stroke="#722821"></path><path d="M542.3 470L648 378L534.3 368Z" fill="#b65606" stroke="#b65606"></path><path d="M534.3 368L648 378L607 259Z" fill="#973c1c" stroke="#973c1c"></path><path d="M638 203L500.3 150L503.3 239Z" fill="#973c1c" stroke="#973c1c"></path><path d="M503.3 239L440.7 144L451.7 299Z" fill="#a74815" stroke="#a74815"></path><path d="M728.7 242L638 203L607 259Z" fill="#7c2c20" stroke="#7c2c20"></path><path d="M607 259L638 203L503.3 239Z" fill="#af4f0f" stroke="#af4f0f"></path><path d="M443.7 366L542.3 470L534.3 368Z" fill="#af4f0f" stroke="#af4f0f"></path><path d="M500.3 150L440.7 144L503.3 239Z" fill="#973c1c" stroke="#973c1c"></path><path d="M287 331L395.7 467L443.7 366Z" fill="#853120" stroke="#853120"></path><path d="M638 203L538.3 106L500.3 150Z" fill="#973c1c" stroke="#973c1c"></path><path d="M500.3 150L431.7 98L440.7 144Z" fill="#5f2020" stroke="#5f2020"></path><path d="M307 297L443.7 366L451.7 299Z" fill="#8e361e" stroke="#8e361e"></path><path d="M443.7 366L395.7 467L542.3 470Z" fill="#7c2c20" stroke="#7c2c20"></path><path d="M334 159L307 297L451.7 299Z" fill="#9f4219" stroke="#9f4219"></path><path d="M648 378L728.7 242L607 259Z" fill="#7c2c20" stroke="#7c2c20"></path><path d="M638 203L662 110L538.3 106Z" fill="#a74815" stroke="#a74815"></path><path d="M542.3 470L664 470L648 378Z" fill="#7c2c20" stroke="#7c2c20"></path><path d="M648 378L750.7 330L728.7 242Z" fill="#692421" stroke="#692421"></path><path d="M538.3 106L431.7 98L500.3 150Z" fill="#8e361e" stroke="#8e361e"></path><path d="M440.7 144L334 159L451.7 299Z" fill="#8e361e" stroke="#8e361e"></path><path d="M307 297L287 331L443.7 366Z" fill="#7c2c20" stroke="#7c2c20"></path><path d="M342 95L334 159L440.7 144Z" fill="#973c1c" stroke="#973c1c"></path><path d="M307 297L232.3 307L287 331Z" fill="#853120" stroke="#853120"></path><path d="M766.7 459L750.7 330L648 378Z" fill="#b65606" stroke="#b65606"></path><path d="M462.7 540L555.3 540L542.3 470Z" fill="#853120" stroke="#853120"></path><path d="M542.3 470L555.3 540L664 470Z" fill="#692421" stroke="#692421"></path><path d="M764.7 169L662 110L638 203Z" fill="#973c1c" stroke="#973c1c"></path><path d="M538.3 106L425.7 0L431.7 98Z" fill="#692421" stroke="#692421"></path><path d="M395.7 467L462.7 540L542.3 470Z" fill="#b65606" stroke="#b65606"></path><path d="M287 331L354 485L395.7 467Z" fill="#853120" stroke="#853120"></path><path d="M395.7 467L354 485L462.7 540Z" fill="#5f2020" stroke="#5f2020"></path><path d="M431.7 98L342 95L440.7 144Z" fill="#7c2c20" stroke="#7c2c20"></path><path d="M207.3 217L232.3 307L307 297Z" fill="#7c2c20" stroke="#7c2c20"></path><path d="M555.3 540L670 540L664 470Z" fill="#692421" stroke="#692421"></path><path d="M664 470L766.7 459L648 378Z" fill="#692421" stroke="#692421"></path><path d="M827.3 299L764.7 169L728.7 242Z" fill="#9f4219" stroke="#9f4219"></path><path d="M728.7 242L764.7 169L638 203Z" fill="#9f4219" stroke="#9f4219"></path><path d="M207.3 217L307 297L334 159Z" fill="#973c1c" stroke="#973c1c"></path><path d="M287 331L193.3 466L354 485Z" fill="#853120" stroke="#853120"></path><path d="M670 540L766.7 459L664 470Z" fill="#8e361e" stroke="#8e361e"></path><path d="M750.7 330L827.3 299L728.7 242Z" fill="#8e361e" stroke="#8e361e"></path><path d="M655 0L566.3 0L662 110Z" fill="#722821" stroke="#722821"></path><path d="M662 110L566.3 0L538.3 106Z" fill="#b65606" stroke="#b65606"></path><path d="M431.7 98L425.7 0L342 95Z" fill="#722821" stroke="#722821"></path><path d="M766.7 459L814.3 391L750.7 330Z" fill="#692421" stroke="#692421"></path><path d="M814.3 391L827.3 299L750.7 330Z" fill="#a74815" stroke="#a74815"></path><path d="M232.3 307L208.3 354L287 331Z" fill="#a74815" stroke="#a74815"></path><path d="M846.3 140L732.7 74L764.7 169Z" fill="#af4f0f" stroke="#af4f0f"></path><path d="M764.7 169L732.7 74L662 110Z" fill="#7c2c20" stroke="#7c2c20"></path><path d="M566.3 0L425.7 0L538.3 106Z" fill="#853120" stroke="#853120"></path><path d="M219.3 105L334 159L342 95Z" fill="#5f2020" stroke="#5f2020"></path><path d="M219.3 105L207.3 217L334 159Z" fill="#b65606" stroke="#b65606"></path><path d="M82.7 258L84.7 346L208.3 354Z" fill="#853120" stroke="#853120"></path><path d="M193.3 466L291 540L354 485Z" fill="#8e361e" stroke="#8e361e"></path><path d="M354 485L291 540L462.7 540Z" fill="#a74815" stroke="#a74815"></path><path d="M732.7 74L655 0L662 110Z" fill="#722821" stroke="#722821"></path><path d="M766.7 459L864.3 464L814.3 391Z" fill="#692421" stroke="#692421"></path><path d="M670 540L784.7 540L766.7 459Z" fill="#973c1c" stroke="#973c1c"></path><path d="M304 0L219.3 105L342 95Z" fill="#692421" stroke="#692421"></path><path d="M819.3 0L714.7 0L732.7 74Z" fill="#5f2020" stroke="#5f2020"></path><path d="M732.7 74L714.7 0L655 0Z" fill="#853120" stroke="#853120"></path><path d="M107.7 464L193.3 466L208.3 354Z" fill="#973c1c" stroke="#973c1c"></path><path d="M208.3 354L193.3 466L287 331Z" fill="#853120" stroke="#853120"></path><path d="M827.3 299L846.3 140L764.7 169Z" fill="#5f2020" stroke="#5f2020"></path><path d="M425.7 0L304 0L342 95Z" fill="#5f2020" stroke="#5f2020"></path><path d="M784.7 540L864.3 464L766.7 459Z" fill="#5f2020" stroke="#5f2020"></path><path d="M960 373L960 285L827.3 299Z" fill="#722821" stroke="#722821"></path><path d="M827.3 299L960 196L846.3 140Z" fill="#5f2020" stroke="#5f2020"></path><path d="M193.3 466L194.3 540L291 540Z" fill="#8e361e" stroke="#8e361e"></path><path d="M784.7 540L845.3 540L864.3 464Z" fill="#973c1c" stroke="#973c1c"></path><path d="M846.3 140L841.3 53L732.7 74Z" fill="#853120" stroke="#853120"></path><path d="M304 0L243.3 0L219.3 105Z" fill="#7c2c20" stroke="#7c2c20"></path><path d="M841.3 53L819.3 0L732.7 74Z" fill="#9f4219" stroke="#9f4219"></path><path d="M82.7 258L208.3 354L232.3 307Z" fill="#5f2020" stroke="#5f2020"></path><path d="M193.3 466L110.7 540L194.3 540Z" fill="#853120" stroke="#853120"></path><path d="M82.7 258L232.3 307L207.3 217Z" fill="#5f2020" stroke="#5f2020"></path><path d="M82.7 258L207.3 217L92.7 172Z" fill="#5f2020" stroke="#5f2020"></path><path d="M92.7 172L207.3 217L219.3 105Z" fill="#a74815" stroke="#a74815"></path><path d="M84.7 346L107.7 464L208.3 354Z" fill="#722821" stroke="#722821"></path><path d="M960 373L814.3 391L864.3 464Z" fill="#8e361e" stroke="#8e361e"></path><path d="M960 373L827.3 299L814.3 391Z" fill="#a74815" stroke="#a74815"></path><path d="M846.3 140L960 55L841.3 53Z" fill="#973c1c" stroke="#973c1c"></path><path d="M841.3 53L960 0L819.3 0Z" fill="#7c2c20" stroke="#7c2c20"></path><path d="M80.7 129L92.7 172L219.3 105Z" fill="#9f4219" stroke="#9f4219"></path><path d="M960 459L960 373L864.3 464Z" fill="#8e361e" stroke="#8e361e"></path><path d="M960 285L960 196L827.3 299Z" fill="#7c2c20" stroke="#7c2c20"></path><path d="M960 540L960 459L864.3 464Z" fill="#853120" stroke="#853120"></path><path d="M0 540L110.7 540L107.7 464Z" fill="#973c1c" stroke="#973c1c"></path><path d="M107.7 464L110.7 540L193.3 466Z" fill="#7c2c20" stroke="#7c2c20"></path><path d="M101.7 0L80.7 129L219.3 105Z" fill="#8e361e" stroke="#8e361e"></path><path d="M0 170L0 306L82.7 258Z" fill="#8e361e" stroke="#8e361e"></path><path d="M845.3 540L960 540L864.3 464Z" fill="#722821" stroke="#722821"></path><path d="M960 196L960 55L846.3 140Z" fill="#692421" stroke="#692421"></path><path d="M243.3 0L101.7 0L219.3 105Z" fill="#722821" stroke="#722821"></path><path d="M82.7 258L0 306L84.7 346Z" fill="#7c2c20" stroke="#7c2c20"></path><path d="M84.7 346L0 420L107.7 464Z" fill="#9f4219" stroke="#9f4219"></path><path d="M0 170L82.7 258L92.7 172Z" fill="#973c1c" stroke="#973c1c"></path><path d="M0 170L92.7 172L80.7 129Z" fill="#973c1c" stroke="#973c1c"></path><path d="M0 306L0 386L84.7 346Z" fill="#9f4219" stroke="#9f4219"></path><path d="M0 386L0 420L84.7 346Z" fill="#692421" stroke="#692421"></path><path d="M0 98L0 170L80.7 129Z" fill="#692421" stroke="#692421"></path><path d="M960 55L960 0L841.3 53Z" fill="#7c2c20" stroke="#7c2c20"></path><path d="M101.7 0L0 98L80.7 129Z" fill="#9f4219" stroke="#9f4219"></path><path d="M0 420L0 540L107.7 464Z" fill="#7c2c20" stroke="#7c2c20"></path><path d="M101.7 0L0 0L0 98Z" fill="#9f4219" stroke="#9f4219"></path></g></svg>