<svg id="visual" viewBox="0 0 960 540" width="960" height="540" xmlns="http://www.w3.org/2000/svg" xmlns:xlink="http://www.w3.org/1999/xlink" version="1.1"><rect width="960" height="540" fill="#001829"></rect><g><g transform="translate(89 363)"><path d="M0 -87L75.3 -43.5L75.3 43.5L0 87L-75.3 43.5L-75.3 -43.5Z" fill="#297EA6"></path></g><g transform="translate(457 481)"><path d="M0 -70L60.6 -35L60.6 35L0 70L-60.6 35L-60.6 -35Z" fill="#297EA6"></path></g><g transform="translate(919 432)"><path d="M0 -60L52 -30L52 30L0 60L-52 30L-52 -30Z" fill="#297EA6"></path></g><g transform="translate(448 305)"><path d="M0 -63L54.6 -31.5L54.6 31.5L0 63L-54.6 31.5L-54.6 -31.5Z" fill="#297EA6"></path></g><g transform="translate(673 43)"><path d="M0 -85L73.6 -42.5L73.6 42.5L0 85L-73.6 42.5L-73.6 -42.5Z" fill="#297EA6"></path></g><g transform="translate(447 53)"><path d="M0 -58L50.2 -29L50.2 29L0 58L-50.2 29L-50.2 -29Z" fill="#297EA6"></path></g><g transform="translate(171 166)"><path d="M0 -83L71.9 -41.5L71.9 41.5L0 83L-71.9 41.5L-71.9 -41.5Z" fill="#297EA6"></path></g><g transform="translate(2 52)"><path d="M0 -55L47.6 -27.5L47.6 27.5L0 55L-47.6 27.5L-47.6 -27.5Z" fill="#297EA6"></path></g><g transform="translate(831 217)"><path d="M0 -77L66.7 -38.5L66.7 38.5L0 77L-66.7 38.5L-66.7 -38.5Z" fill="#297EA6"></path></g><g transform="translate(37 538)"><path d="M0 -66L57.2 -33L57.2 33L0 66L-57.2 33L-57.2 -33Z" fill="#297EA6"></path></g><g transform="translate(623 345)"><path d="M0 -69L59.8 -34.5L59.8 34.5L0 69L-59.8 34.5L-59.8 -34.5Z" fill="#297EA6"></path></g><g transform="translate(280 493)"><path d="M0 -66L57.2 -33L57.2 33L0 66L-57.2 33L-57.2 -33Z" fill="#297EA6"></path></g><g transform="translate(735 531)"><path d="M0 -67L58 -33.5L58 33.5L0 67L-58 33.5L-58 -33.5Z" fill="#297EA6"></path></g><g transform="translate(958 30)"><path d="M0 -71L61.5 -35.5L61.5 35.5L0 71L-61.5 35.5L-61.5 -35.5Z" fill="#297EA6"></path></g><g transform="translate(254 10)"><path d="M0 -82L71 -41L71 41L0 82L-71 41L-71 -41Z" fill="#297EA6"></path></g></g></svg>